<?xml version="1.0" standalone="no"?>
<!DOCTYPE svg PUBLIC "-//W3C//DTD SVG 20010904//EN"
 "http://www.w3.org/TR/2001/REC-SVG-20010904/DTD/svg10.dtd">
<svg version="1.0" xmlns="http://www.w3.org/2000/svg"
 width="828.000000pt" height="828.000000pt" viewBox="0 0 828.000000 828.000000"
 preserveAspectRatio="xMidYMid meet">
<metadata>
Created by potrace 1.14, written by Peter Selinger 2001-2017
</metadata>
<g transform="translate(0.000000,828.000000) scale(0.100000,-0.100000)"
fill="#000000" stroke="none">
<path d="M5187 8264 c-2 -3 -33 -7 -68 -9 -155 -9 -226 -15 -249 -21 -28 -6
-52 -10 -122 -19 -26 -3 -50 -10 -53 -15 -3 -5 -31 -14 -63 -20 -31 -7 -63
-17 -69 -22 -7 -6 -13 -8 -13 -6 0 5 -45 -3 -95 -15 -11 -3 -49 -16 -85 -29
-36 -14 -68 -25 -72 -26 -28 -8 -145 -55 -205 -83 -24 -10 -45 -18 -47 -17 -2
2 -12 -4 -22 -13 -18 -16 -116 -71 -196 -111 -39 -19 -109 -64 -118 -76 -3 -4
-27 -18 -54 -32 -26 -14 -50 -31 -53 -37 -3 -7 -9 -13 -14 -13 -20 0 -260
-203 -356 -301 -154 -157 -200 -211 -298 -349 -22 -30 -43 -56 -47 -58 -5 -2
-8 -7 -8 -12 0 -5 -17 -35 -39 -67 -21 -32 -51 -83 -66 -113 -15 -30 -40 -73
-55 -95 -15 -22 -27 -42 -27 -45 0 -3 -15 -36 -33 -75 -56 -121 -150 -371
-142 -380 3 -2 0 -11 -7 -19 -6 -8 -14 -25 -16 -37 -3 -13 -8 -37 -12 -54 -4
-16 -7 -32 -8 -35 -1 -3 -4 -18 -8 -35 -4 -16 -10 -41 -13 -55 -3 -14 -10 -43
-15 -65 -5 -22 -11 -60 -14 -85 -3 -25 -9 -56 -12 -70 -3 -14 -7 -47 -8 -75
-2 -27 -5 -63 -9 -80 -7 -36 -8 -377 0 -460 3 -33 6 -80 8 -105 5 -58 17 -143
22 -151 2 -4 6 -24 9 -45 4 -22 8 -46 10 -54 2 -8 7 -28 10 -45 8 -50 12 -68
25 -115 7 -25 14 -52 15 -60 0 -8 7 -25 13 -37 7 -13 10 -23 7 -23 -3 0 -1 -8
4 -17 5 -10 11 -31 14 -48 13 -73 159 -391 261 -568 l66 -115 -14 -74 c-7 -41
-12 -120 -10 -178 2 -100 27 -254 44 -275 4 -5 11 -24 14 -41 11 -48 141 -257
200 -320 6 -6 30 -33 52 -60 39 -46 92 -105 150 -167 14 -15 37 -41 51 -58
l26 -31 -29 -24 c-16 -14 -41 -30 -56 -35 -16 -6 -28 -15 -28 -19 0 -4 -21
-21 -47 -36 -210 -123 -407 -193 -723 -258 -41 -9 -109 -24 -151 -35 -42 -11
-118 -27 -170 -35 -52 -8 -112 -18 -134 -21 -83 -13 -199 -27 -345 -40 -30 -3
-75 -7 -100 -10 -25 -3 -63 -7 -85 -10 -49 -6 -136 -13 -235 -20 -41 -3 -100
-7 -130 -10 -30 -2 -102 -8 -160 -12 -58 -3 -108 -8 -112 -9 -5 -1 -60 -2
-124 -3 l-116 -1 -34 -37 c-19 -20 -34 -42 -34 -49 0 -7 -11 -26 -25 -42 -14
-17 -25 -37 -25 -45 0 -8 -7 -20 -16 -27 -8 -8 -22 -27 -30 -44 -8 -17 -27
-51 -44 -76 -105 -160 -97 -186 52 -176 51 3 147 8 213 11 203 9 483 31 637
51 l37 4 -4 -52 c-3 -29 -7 -64 -10 -78 -5 -28 -23 -202 -31 -300 -3 -36 -9
-94 -15 -130 -5 -36 -11 -96 -14 -135 -3 -38 -7 -79 -9 -90 -2 -11 -7 -50 -11
-88 -6 -58 -10 -67 -28 -67 -11 0 -36 -4 -56 -10 -20 -5 -121 -26 -226 -45
-104 -20 -257 -50 -340 -67 -82 -16 -161 -32 -175 -34 -65 -12 -329 -67 -362
-75 -30 -8 -38 -15 -38 -33 0 -26 24 -50 60 -61 14 -4 27 -10 30 -14 8 -10
174 -91 187 -91 6 0 13 -4 15 -8 1 -4 71 -42 153 -83 104 -53 159 -75 178 -73
34 3 188 46 302 82 44 14 82 26 85 27 6 1 127 37 225 66 39 12 84 27 100 34
17 8 80 30 140 50 61 20 117 39 125 42 8 4 17 7 20 7 14 4 156 61 165 67 6 3
42 17 80 29 39 13 97 36 130 53 33 16 88 40 123 53 35 14 109 47 165 75 56 28
127 63 157 78 30 14 57 29 60 32 3 3 33 20 67 37 35 17 82 44 105 60 24 16 50
31 58 34 21 9 174 113 261 180 97 74 237 219 334 349 44 57 83 106 87 107 4 2
8 10 8 17 0 8 6 20 13 27 22 22 87 124 87 137 0 6 4 11 9 11 5 0 30 42 55 93
44 90 46 96 51 207 3 63 8 135 11 160 3 25 5 215 6 422 l0 377 62 -33 c33 -18
98 -53 142 -79 75 -42 248 -127 259 -127 3 0 24 -9 48 -20 61 -28 150 -62 167
-64 23 -3 102 -27 135 -42 28 -12 132 -38 195 -49 47 -7 85 -16 115 -24 44
-13 125 -22 260 -28 175 -7 179 -8 194 -17 9 -6 12 -5 8 1 -4 5 26 9 76 9 95
1 267 11 288 18 8 2 39 7 69 10 30 3 66 8 80 10 14 3 41 7 60 10 116 18 287
62 354 90 21 9 44 16 51 16 7 0 39 12 71 27 33 15 62 27 67 29 4 1 9 3 12 4 3
1 8 3 13 4 32 6 311 141 322 155 3 4 32 23 65 41 76 43 232 146 259 171 11 11
26 19 33 19 7 0 23 12 36 26 12 14 49 47 82 72 33 26 80 66 105 89 24 24 48
43 51 43 4 0 26 25 49 56 24 31 60 74 81 95 22 22 39 42 39 47 0 4 17 26 38
48 37 42 53 62 107 140 105 150 132 191 138 204 4 8 19 35 33 60 44 75 124
239 124 253 0 8 3 17 8 21 4 4 7 11 8 14 0 4 12 32 26 62 36 78 117 331 135
420 8 39 9 44 15 65 4 11 10 47 13 80 4 32 8 62 10 65 2 3 6 30 9 60 4 30 8
66 11 80 13 70 19 350 10 445 -2 22 -6 74 -10 115 -7 91 -12 141 -22 200 -4
25 -8 50 -8 55 -2 11 -16 92 -20 115 -2 8 -11 44 -20 80 -9 36 -18 76 -21 89
-3 14 -8 29 -11 35 -4 6 -8 20 -9 32 -1 13 -9 38 -17 56 -9 18 -28 69 -43 113
-15 44 -47 122 -71 173 -23 50 -43 95 -43 98 0 3 -8 18 -19 32 -21 30 -51 82
-89 156 -33 64 -112 179 -157 228 -19 20 -35 41 -35 46 0 6 -22 34 -50 63 -27
29 -50 56 -50 59 0 15 -324 330 -382 372 -12 9 -79 58 -147 109 -68 50 -134
97 -145 103 -12 6 -39 23 -61 37 -22 14 -69 40 -105 58 -36 18 -81 42 -100 53
-33 20 -183 87 -205 92 -5 1 -21 8 -33 15 -13 7 -36 15 -50 17 -15 3 -31 9
-37 13 -5 4 -41 16 -80 25 -38 10 -79 21 -90 26 -11 4 -51 15 -89 23 -52 12
-73 13 -84 5 -10 -9 -12 -8 -10 2 3 13 -70 32 -173 44 -31 4 -65 8 -76 10 -75
15 -465 31 -476 20z m-2067 -4987 c0 -35 -4 -56 -10 -52 -11 7 -30 69 -40 135
l-8 45 29 -35 c25 -29 29 -43 29 -93z m308 -317 c26 -26 42 -78 42 -137 l0
-58 -50 54 c-28 30 -50 58 -50 62 0 4 -10 15 -21 23 -20 14 -21 21 -16 93 4
43 6 80 7 83 0 3 17 -20 37 -50 20 -30 43 -62 51 -70z m5 -901 c-4 -233 -8
-250 -86 -369 -39 -61 -173 -212 -225 -255 l-33 -28 6 99 c3 54 8 115 10 134
2 19 6 76 10 125 16 244 23 308 35 313 24 9 148 89 170 109 13 13 29 23 34 23
4 0 24 14 43 30 18 17 35 30 37 30 1 0 1 -95 -1 -211z m-1093 -107 c0 -4 -21
-15 -46 -25 -42 -15 -45 -15 -42 0 4 22 88 46 88 25z m516 -119 c-9 -133 -15
-224 -21 -310 -3 -40 -8 -119 -11 -175 -5 -115 -10 -148 -23 -148 -5 0 -65
-26 -133 -59 -226 -108 -283 -133 -343 -156 -33 -13 -98 -40 -145 -60 -47 -20
-123 -49 -170 -65 -47 -15 -101 -35 -120 -43 -47 -21 -169 -67 -176 -67 -7 0
1 117 15 230 13 103 31 266 36 320 2 25 6 63 9 85 3 22 10 80 15 128 5 48 11
90 14 93 3 3 61 17 129 30 67 14 134 27 148 30 14 3 102 28 195 55 94 28 190
56 215 63 25 7 92 32 150 55 58 24 127 51 154 61 27 11 51 22 54 25 13 13 14
-1 8 -92z m-896 38 c0 -16 -93 -37 -112 -25 -10 7 28 18 105 33 4 0 7 -3 7 -8z
m-480 -65 c0 -22 -6 -25 -62 -33 -74 -11 -78 -9 -78 22 0 21 5 24 43 28 98 9
97 9 97 -17z m-500 -41 c0 -32 -10 -36 -102 -50 -84 -12 -87 -10 -69 38 8 20
17 24 62 26 30 1 55 3 56 4 1 2 13 3 27 5 21 1 26 -3 26 -23z m830 -1164 c0
-11 -100 -54 -108 -47 -3 3 -3 7 -1 9 3 3 96 43 107 46 1 1 2 -3 2 -8z m-493
-185 c0 -13 -43 -29 -114 -42 -34 -6 -29 24 5 32 15 3 38 10 52 14 38 13 57
11 57 -4z m-539 -138 c-3 -22 -32 -35 -115 -51 -30 -6 -33 -4 -33 17 0 20 8
25 63 39 84 21 89 21 85 -5z"/>
</g>
</svg>
